<svg xmlns="http://www.w3.org/2000/svg" width="840" height="168" viewBox="0 0 840 168" role="img" aria-label="Languages by bytes: HTML 35%, Jupyter Notebook 34%, Python 18%, JavaScript 5%, TypeScript 3%, Other 5%"><title>Languages by bytes: HTML 35%, Jupyter Notebook 34%, Python 18%, JavaScript 5%, TypeScript 3%, Other 5%</title><defs><clipPath id="bar"><rect x="28" y="66" width="784" height="12" rx="6"/></clipPath></defs><rect x=".5" y=".5" width="839" height="167" rx="16" fill="#11141D" stroke="#222739"/><path fill="#ECEEF6" transform="translate(28.0 43) scale(0.0190 -0.0190)" d="M68 0V686H194V109H494V0ZM680 -12Q656 -12 629 -5Q603 1 580 17Q557 33 543 62Q529 91 529 134Q529 184 549 218Q569 253 607 275Q645 296 700 306Q755 316 824 316V368Q824 391 817 408Q811 425 794 435Q778 445 747 445Q714 445 696 436Q678 426 671 412Q665 397 665 381V369H553Q552 373 552 378Q552 383 552 389Q552 438 577 471Q602 505 647 521Q691 538 748 538Q812 538 854 520Q896 502 918 465Q940 428 940 371V118Q940 100 949 92Q959 84 972 84H1001V4Q990 -1 971 -6Q952 -11 927 -11Q902 -11 883 -2Q864 6 852 22Q840 38 835 59H830Q815 39 794 23Q773 6 745 -3Q717 -12 680 -12ZM717 84Q742 84 762 92Q782 101 795 117Q809 132 817 155Q824 177 824 205V238Q771 238 731 229Q691 220 670 200Q648 180 648 148Q648 128 656 114Q663 99 679 91Q694 84 717 84ZM1049 0V526H1146L1156 458H1162Q1178 483 1200 501Q1221 519 1249 529Q1277 538 1311 538Q1357 538 1390 522Q1424 505 1442 468Q1461 431 1461 371V0H1344V347Q1344 370 1339 387Q1334 403 1324 414Q1314 424 1299 429Q1284 434 1265 434Q1236 434 1214 419Q1191 403 1178 375Q1165 346 1165 307V0ZM1646 -186Q1610 -186 1579 -171Q1549 -156 1531 -127Q1513 -99 1513 -60Q1513 -17 1536 10Q1560 38 1591 52Q1568 64 1554 85Q1540 106 1540 134Q1540 170 1564 193Q1589 217 1625 225Q1590 248 1572 283Q1554 319 1554 363Q1554 416 1578 455Q1602 495 1647 516Q1693 538 1758 538Q1784 538 1808 534Q1832 530 1851 523Q1880 541 1893 566Q1906 592 1908 615H2014Q2014 579 2002 552Q1989 525 1967 508Q1945 492 1915 484Q1939 461 1951 431Q1963 400 1963 363Q1963 311 1940 271Q1918 232 1874 210Q1830 188 1766 188H1697Q1676 188 1664 178Q1653 169 1653 151Q1653 135 1664 125Q1676 115 1696 115H1882Q1942 115 1978 75Q2014 35 2014 -25Q2014 -70 1993 -107Q1971 -143 1932 -165Q1893 -186 1840 -186ZM1686 -103H1834Q1853 -103 1868 -95Q1882 -87 1891 -74Q1899 -60 1899 -43Q1899 -14 1883 1Q1867 16 1841 16H1686Q1661 16 1644 0Q1628 -17 1628 -43Q1628 -69 1644 -86Q1660 -103 1686 -103ZM1759 269Q1804 269 1826 293Q1849 318 1849 363Q1849 409 1826 433Q1804 457 1759 457Q1714 457 1691 433Q1669 409 1669 363Q1669 333 1679 312Q1689 291 1709 280Q1729 269 1759 269ZM2213 -12Q2145 -12 2104 26Q2064 65 2064 156V526H2179V180Q2179 156 2184 140Q2189 123 2199 113Q2209 102 2224 97Q2239 92 2259 92Q2287 92 2310 107Q2333 123 2346 152Q2359 181 2359 220V526H2474V0H2378L2369 69H2363Q2347 44 2325 26Q2303 7 2275 -2Q2247 -12 2213 -12ZM2700 -12Q2677 -12 2650 -5Q2624 1 2601 17Q2578 33 2564 62Q2550 91 2550 134Q2550 184 2570 218Q2590 253 2628 275Q2666 296 2721 306Q2776 316 2845 316V368Q2845 391 2838 408Q2832 425 2815 435Q2799 445 2768 445Q2735 445 2717 436Q2699 426 2692 412Q2685 397 2685 381V369H2574Q2573 373 2573 378Q2573 383 2573 389Q2573 438 2598 471Q2623 505 2668 521Q2712 538 2769 538Q2833 538 2875 520Q2917 502 2939 465Q2961 428 2961 371V118Q2961 100 2970 92Q2980 84 2993 84H3022V4Q3011 -1 2992 -6Q2973 -11 2948 -11Q2923 -11 2904 -2Q2885 6 2873 22Q2861 38 2856 59H2850Q2836 39 2815 23Q2794 6 2766 -3Q2738 -12 2700 -12ZM2738 84Q2763 84 2783 92Q2802 101 2816 117Q2830 132 2838 155Q2845 177 2845 205V238Q2792 238 2752 229Q2712 220 2690 200Q2669 180 2669 148Q2669 128 2676 114Q2684 99 2700 91Q2715 84 2738 84ZM3157 -186Q3121 -186 3090 -171Q3060 -156 3042 -127Q3024 -99 3024 -60Q3024 -17 3047 10Q3071 38 3102 52Q3079 64 3065 85Q3051 106 3051 134Q3051 170 3075 193Q3100 217 3136 225Q3101 248 3083 283Q3065 319 3065 363Q3065 416 3089 455Q3113 495 3158 516Q3204 538 3269 538Q3295 538 3319 534Q3343 530 3362 523Q3391 541 3404 566Q3417 592 3419 615H3525Q3525 579 3513 552Q3500 525 3478 508Q3456 492 3426 484Q3450 461 3462 431Q3474 400 3474 363Q3474 311 3451 271Q3429 232 3385 210Q3341 188 3277 188H3208Q3187 188 3175 178Q3164 169 3164 151Q3164 135 3175 125Q3187 115 3207 115H3393Q3453 115 3489 75Q3525 35 3525 -25Q3525 -70 3504 -107Q3482 -143 3443 -165Q3404 -186 3351 -186ZM3197 -103H3345Q3364 -103 3379 -95Q3393 -87 3402 -74Q3410 -60 3410 -43Q3410 -14 3394 1Q3378 16 3352 16H3197Q3172 16 3155 0Q3139 -17 3139 -43Q3139 -69 3155 -86Q3171 -103 3197 -103ZM3270 269Q3315 269 3337 293Q3360 318 3360 363Q3360 409 3337 433Q3315 457 3270 457Q3225 457 3202 433Q3180 409 3180 363Q3180 333 3190 312Q3200 291 3220 280Q3240 269 3270 269ZM3782 -12Q3705 -12 3655 17Q3605 46 3581 107Q3556 168 3556 263Q3556 360 3581 421Q3606 481 3656 510Q3707 538 3784 538Q3853 538 3900 512Q3947 485 3970 427Q3993 369 3993 274V236H3675Q3676 184 3687 149Q3697 114 3721 98Q3744 81 3783 81Q3804 81 3821 87Q3838 93 3851 105Q3864 118 3871 137Q3878 157 3878 184H3993Q3992 134 3977 97Q3962 60 3934 36Q3906 12 3867 0Q3829 -12 3782 -12ZM3676 314H3873Q3873 350 3867 374Q3861 399 3850 415Q3839 431 3822 438Q3805 445 3783 445Q3748 445 3725 430Q3702 416 3691 387Q3680 358 3676 314ZM4253 -12Q4199 -12 4161 0Q4122 12 4097 34Q4072 55 4060 84Q4048 113 4048 148Q4048 153 4048 157Q4049 162 4049 166H4160Q4160 162 4160 159Q4160 156 4160 153Q4161 128 4173 111Q4186 95 4208 87Q4229 79 4255 79Q4280 79 4300 85Q4320 92 4332 105Q4344 119 4344 140Q4344 166 4327 181Q4310 195 4282 205Q4254 214 4222 224Q4193 233 4164 244Q4135 256 4111 273Q4088 290 4073 317Q4059 344 4059 384Q4059 423 4074 451Q4089 480 4116 499Q4143 518 4179 528Q4216 538 4259 538Q4301 538 4336 528Q4370 519 4395 501Q4421 483 4434 457Q4448 431 4448 399Q4448 392 4447 384Q4447 377 4446 373H4336V386Q4336 406 4326 419Q4316 433 4298 440Q4280 448 4254 448Q4234 448 4218 444Q4203 439 4193 432Q4183 424 4178 415Q4173 405 4173 393Q4173 373 4187 361Q4201 348 4224 340Q4247 331 4275 322Q4306 313 4339 302Q4371 291 4399 275Q4427 258 4444 230Q4462 202 4462 156Q4462 111 4446 78Q4430 46 4402 26Q4374 7 4336 -3Q4298 -12 4253 -12Z"/><path fill="#8D95AB" transform="translate(538.4 42) scale(0.0120 -0.0120)" d="M332 -10Q264 -10 223 26Q182 63 182 126L200 105H182V0H92V730H182V570L180 445H200L182 424Q182 486 224 523Q265 560 332 560Q415 560 465 505Q515 450 515 355V194Q515 100 465 45Q415 -10 332 -10ZM302 68Q359 68 392 102Q425 136 425 200V350Q425 414 392 448Q359 482 302 482Q247 482 214 447Q182 412 182 350V200Q182 138 214 103Q247 68 302 68ZM778 -180 859 34 655 550H755L883 210Q890 193 896 170Q902 146 906 130Q910 146 916 170Q922 193 928 210L1048 550H1145L874 -180ZM2132 -10Q2064 -10 2023 26Q1982 63 1982 126L2000 105H1982V0H1892V730H1982V570L1980 445H2000L1982 424Q1982 486 2024 523Q2065 560 2132 560Q2215 560 2265 505Q2315 450 2315 355V194Q2315 100 2265 45Q2215 -10 2132 -10ZM2102 68Q2159 68 2192 102Q2225 136 2225 200V350Q2225 414 2192 448Q2159 482 2102 482Q2047 482 2014 447Q1982 412 1982 350V200Q1982 138 2014 103Q2047 68 2102 68ZM2578 -180 2659 34 2455 550H2555L2683 210Q2690 193 2696 170Q2702 146 2706 130Q2710 146 2716 170Q2722 193 2728 210L2848 550H2945L2674 -180ZM3360 0Q3289 0 3250 38Q3210 76 3210 145V468H3055V550H3210V705H3300V550H3520V468H3300V145Q3300 82 3360 82H3510V0ZM3900 -10Q3835 -10 3786 16Q3738 42 3712 90Q3685 137 3685 200V350Q3685 414 3712 461Q3738 508 3786 534Q3835 560 3900 560Q3965 560 4014 534Q4062 508 4088 461Q4115 414 4115 350V253H3773V200Q3773 135 3806 100Q3839 66 3900 66Q3952 66 3984 84Q4016 103 4023 140H4113Q4104 71 4046 30Q3987 -10 3900 -10ZM4027 313V350Q4027 415 3994 450Q3962 485 3900 485Q3839 485 3806 450Q3773 415 3773 350V321H4034ZM4483 -8Q4427 -8 4386 10Q4344 27 4320 59Q4295 91 4290 135H4380Q4386 106 4412 89Q4439 72 4483 72H4525Q4578 72 4604 94Q4630 115 4630 151Q4630 186 4606 206Q4583 227 4537 234L4463 246Q4382 260 4342 296Q4303 333 4303 403Q4303 477 4350 518Q4397 558 4491 558H4529Q4608 558 4656 521Q4704 484 4714 421H4624Q4618 447 4594 462Q4570 478 4529 478H4491Q4440 478 4416 459Q4393 440 4393 402Q4393 368 4413 352Q4433 336 4476 329L4550 317Q4639 303 4680 265Q4720 227 4720 155Q4720 79 4672 36Q4623 -8 4525 -8ZM5652 -10Q5565 -10 5515 34Q5465 79 5465 155Q5465 232 5515 276Q5565 320 5650 320H5820V375Q5820 426 5790 454Q5759 481 5703 481Q5654 481 5621 460Q5588 440 5583 405H5493Q5502 476 5560 518Q5618 560 5705 560Q5800 560 5855 511Q5910 462 5910 378V0H5822V105H5807L5822 120Q5822 60 5776 25Q5729 -10 5652 -10ZM5674 61Q5738 61 5779 93Q5820 125 5820 175V253H5652Q5607 253 5581 228Q5555 203 5555 160Q5555 114 5586 88Q5618 61 5674 61ZM6304 -10Q6238 -10 6188 15Q6139 40 6112 88Q6085 135 6085 200V350Q6085 416 6112 463Q6139 510 6188 535Q6238 560 6304 560Q6399 560 6457 509Q6515 458 6518 370H6428Q6425 423 6392 452Q6360 480 6304 480Q6245 480 6210 446Q6175 413 6175 351V200Q6175 138 6210 104Q6245 70 6304 70Q6360 70 6392 99Q6425 128 6428 180H6518Q6515 92 6457 41Q6399 -10 6304 -10ZM6711 0V550H6799V445H6820L6791 380Q6791 469 6830 514Q6868 560 6944 560Q7031 560 7082 506Q7134 451 7134 358V325H7044V350Q7044 415 7012 450Q6981 484 6923 484Q6866 484 6834 449Q6801 414 6801 350V0ZM7500 -8Q7434 -8 7386 17Q7338 42 7312 90Q7285 137 7285 202V348Q7285 414 7312 461Q7338 508 7386 533Q7434 558 7500 558Q7566 558 7614 533Q7662 508 7688 461Q7715 414 7715 349V202Q7715 137 7688 90Q7662 42 7614 17Q7566 -8 7500 -8ZM7500 72Q7559 72 7592 105Q7625 138 7625 202V348Q7625 412 7592 445Q7559 478 7500 478Q7442 478 7408 445Q7375 412 7375 348V202Q7375 138 7408 105Q7442 72 7500 72ZM8083 -8Q8027 -8 7986 10Q7944 27 7920 59Q7895 91 7890 135H7980Q7986 106 8012 89Q8039 72 8083 72H8125Q8178 72 8204 94Q8230 115 8230 151Q8230 186 8206 206Q8183 227 8137 234L8063 246Q7982 260 7942 296Q7903 333 7903 403Q7903 477 7950 518Q7997 558 8091 558H8129Q8208 558 8256 521Q8304 484 8314 421H8224Q8218 447 8194 462Q8170 478 8129 478H8091Q8040 478 8016 459Q7993 440 7993 402Q7993 368 8013 352Q8033 336 8076 329L8150 317Q8239 303 8280 265Q8320 227 8320 155Q8320 79 8272 36Q8223 -8 8125 -8ZM8683 -8Q8627 -8 8586 10Q8544 27 8520 59Q8495 91 8490 135H8580Q8586 106 8612 89Q8639 72 8683 72H8725Q8778 72 8804 94Q8830 115 8830 151Q8830 186 8806 206Q8783 227 8737 234L8663 246Q8582 260 8542 296Q8503 333 8503 403Q8503 477 8550 518Q8597 558 8691 558H8729Q8808 558 8856 521Q8904 484 8914 421H8824Q8818 447 8794 462Q8770 478 8729 478H8691Q8640 478 8616 459Q8593 440 8593 402Q8593 368 8613 352Q8633 336 8676 329L8750 317Q8839 303 8880 265Q8920 227 8920 155Q8920 79 8872 36Q8823 -8 8725 -8ZM10010 0V160H9680V301L9969 730H10067L9770 282V242H10010V420H10100V0ZM10500 -10Q10433 -10 10384 16Q10334 43 10307 92Q10280 140 10280 205V525Q10280 591 10307 639Q10334 687 10384 714Q10433 740 10500 740Q10568 740 10617 714Q10666 687 10693 639Q10720 591 10720 525V205Q10720 140 10693 92Q10666 43 10616 16Q10567 -10 10500 -10ZM10500 67Q10560 67 10596 106Q10633 144 10633 205V525Q10633 586 10596 624Q10560 663 10500 663Q10440 663 10404 624Q10367 586 10367 525V205Q10367 144 10404 106Q10440 67 10500 67ZM10500 306Q10473 306 10456 323Q10440 340 10440 368Q10440 395 10456 412Q10473 428 10500 428Q10527 428 10544 412Q10560 395 10560 368Q10560 340 10544 323Q10527 306 10500 306ZM11492 -180V550H11582V445H11600L11582 424Q11582 487 11624 524Q11665 560 11733 560Q11816 560 11866 506Q11915 451 11915 356V195Q11915 132 11892 86Q11870 40 11830 15Q11789 -10 11733 -10Q11666 -10 11624 27Q11582 64 11582 126L11600 105H11580L11582 -20V-180ZM11703 68Q11760 68 11792 102Q11825 136 11825 200V350Q11825 414 11792 448Q11760 482 11703 482Q11648 482 11615 447Q11582 412 11582 350V200Q11582 138 11615 103Q11648 68 11703 68ZM12299 -10Q12204 -10 12147 46Q12090 103 12090 200V550H12180V200Q12180 138 12212 104Q12244 69 12299 69Q12355 69 12388 104Q12420 138 12420 200V550H12510V200Q12510 103 12452 46Q12394 -10 12299 -10ZM12932 -10Q12864 -10 12823 26Q12782 63 12782 126L12800 105H12782V0H12692V730H12782V570L12780 445H12800L12782 424Q12782 486 12824 523Q12865 560 12932 560Q13015 560 13065 505Q13115 450 13115 355V194Q13115 100 13065 45Q13015 -10 12932 -10ZM12902 68Q12959 68 12992 102Q13025 136 13025 200V350Q13025 414 12992 448Q12959 482 12902 482Q12847 482 12814 447Q12782 412 12782 350V200Q12782 138 12814 103Q12847 68 12902 68ZM13575 0Q13527 0 13491 19Q13455 38 13435 73Q13415 108 13415 155V648H13230V730H13505V155Q13505 121 13524 102Q13543 82 13575 82H13750V0ZM13885 0V82H14080V468H13910V550H14170V82H14355V0ZM14115 649Q14082 649 14063 666Q14044 683 14044 712Q14044 742 14063 760Q14082 777 14115 777Q14148 777 14167 760Q14186 742 14186 712Q14186 683 14167 666Q14148 649 14115 649ZM14704 -10Q14638 -10 14588 15Q14539 40 14512 88Q14485 135 14485 200V350Q14485 416 14512 463Q14539 510 14588 535Q14638 560 14704 560Q14799 560 14857 509Q14915 458 14918 370H14828Q14825 423 14792 452Q14760 480 14704 480Q14645 480 14610 446Q14575 413 14575 351V200Q14575 138 14610 104Q14645 70 14704 70Q14760 70 14792 99Q14825 128 14828 180H14918Q14915 92 14857 41Q14799 -10 14704 -10ZM15711 0V550H15799V445H15820L15791 380Q15791 469 15830 514Q15868 560 15944 560Q16031 560 16082 506Q16134 451 16134 358V325H16044V350Q16044 415 16012 450Q15981 484 15923 484Q15866 484 15834 449Q15801 414 15801 350V0ZM16500 -10Q16435 -10 16386 16Q16338 42 16312 90Q16285 137 16285 200V350Q16285 414 16312 461Q16338 508 16386 534Q16435 560 16500 560Q16565 560 16614 534Q16662 508 16688 461Q16715 414 16715 350V253H16373V200Q16373 135 16406 100Q16439 66 16500 66Q16552 66 16584 84Q16616 103 16623 140H16713Q16704 71 16646 30Q16587 -10 16500 -10ZM16627 313V350Q16627 415 16594 450Q16562 485 16500 485Q16439 485 16406 450Q16373 415 16373 350V321H16634ZM16892 -180V550H16982V445H17000L16982 424Q16982 487 17024 524Q17065 560 17133 560Q17216 560 17266 506Q17315 451 17315 356V195Q17315 132 17292 86Q17270 40 17230 15Q17189 -10 17133 -10Q17066 -10 17024 27Q16982 64 16982 126L17000 105H16980L16982 -20V-180ZM17103 68Q17160 68 17192 102Q17225 136 17225 200V350Q17225 414 17192 448Q17160 482 17103 482Q17048 482 17015 447Q16982 412 16982 350V200Q16982 138 17015 103Q17048 68 17103 68ZM17700 -8Q17634 -8 17586 17Q17538 42 17512 90Q17485 137 17485 202V348Q17485 414 17512 461Q17538 508 17586 533Q17634 558 17700 558Q17766 558 17814 533Q17862 508 17888 461Q17915 414 17915 349V202Q17915 137 17888 90Q17862 42 17814 17Q17766 -8 17700 -8ZM17700 72Q17759 72 17792 105Q17825 138 17825 202V348Q17825 412 17792 445Q17759 478 17700 478Q17642 478 17608 445Q17575 412 17575 348V202Q17575 138 17608 105Q17642 72 17700 72ZM18283 -8Q18227 -8 18186 10Q18144 27 18120 59Q18095 91 18090 135H18180Q18186 106 18212 89Q18239 72 18283 72H18325Q18378 72 18404 94Q18430 115 18430 151Q18430 186 18406 206Q18383 227 18337 234L18263 246Q18182 260 18142 296Q18103 333 18103 403Q18103 477 18150 518Q18197 558 18291 558H18329Q18408 558 18456 521Q18504 484 18514 421H18424Q18418 447 18394 462Q18370 478 18329 478H18291Q18240 478 18216 459Q18193 440 18193 402Q18193 368 18213 352Q18233 336 18276 329L18350 317Q18439 303 18480 265Q18520 227 18520 155Q18520 79 18472 36Q18423 -8 18325 -8ZM18685 0V82H18880V468H18710V550H18970V82H19155V0ZM18915 649Q18882 649 18863 666Q18844 683 18844 712Q18844 742 18863 760Q18882 777 18915 777Q18948 777 18967 760Q18986 742 18986 712Q18986 683 18967 666Q18948 649 18915 649ZM19560 0Q19489 0 19450 38Q19410 76 19410 145V468H19255V550H19410V705H19500V550H19720V468H19500V145Q19500 82 19560 82H19710V0ZM20100 -8Q20034 -8 19986 17Q19938 42 19912 90Q19885 137 19885 202V348Q19885 414 19912 461Q19938 508 19986 533Q20034 558 20100 558Q20166 558 20214 533Q20262 508 20288 461Q20315 414 20315 349V202Q20315 137 20288 90Q20262 42 20214 17Q20166 -8 20100 -8ZM20100 72Q20159 72 20192 105Q20225 138 20225 202V348Q20225 412 20192 445Q20159 478 20100 478Q20042 478 20008 445Q19975 412 19975 348V202Q19975 138 20008 105Q20042 72 20100 72ZM20511 0V550H20599V445H20620L20591 380Q20591 469 20630 514Q20668 560 20744 560Q20831 560 20882 506Q20934 451 20934 358V325H20844V350Q20844 415 20812 450Q20781 484 20723 484Q20666 484 20634 449Q20601 414 20601 350V0ZM21085 0V82H21280V468H21110V550H21370V82H21555V0ZM21315 649Q21282 649 21263 666Q21244 683 21244 712Q21244 742 21263 760Q21282 777 21315 777Q21348 777 21367 760Q21386 742 21386 712Q21386 683 21367 666Q21348 649 21315 649ZM21900 -10Q21835 -10 21786 16Q21738 42 21712 90Q21685 137 21685 200V350Q21685 414 21712 461Q21738 508 21786 534Q21835 560 21900 560Q21965 560 22014 534Q22062 508 22088 461Q22115 414 22115 350V253H21773V200Q21773 135 21806 100Q21839 66 21900 66Q21952 66 21984 84Q22016 103 22023 140H22113Q22104 71 22046 30Q21987 -10 21900 -10ZM22027 313V350Q22027 415 21994 450Q21962 485 21900 485Q21839 485 21806 450Q21773 415 21773 350V321H22034ZM22483 -8Q22427 -8 22386 10Q22344 27 22320 59Q22295 91 22290 135H22380Q22386 106 22412 89Q22439 72 22483 72H22525Q22578 72 22604 94Q22630 115 22630 151Q22630 186 22606 206Q22583 227 22537 234L22463 246Q22382 260 22342 296Q22303 333 22303 403Q22303 477 22350 518Q22397 558 22491 558H22529Q22608 558 22656 521Q22704 484 22714 421H22624Q22618 447 22594 462Q22570 478 22529 478H22491Q22440 478 22416 459Q22393 440 22393 402Q22393 368 22413 352Q22433 336 22476 329L22550 317Q22639 303 22680 265Q22720 227 22720 155Q22720 79 22672 36Q22623 -8 22525 -8Z"/><g clip-path="url(#bar)"><rect x="28.0" y="66" width="269.1" height="12" fill="#e34c26"/><rect x="299.1" y="66" width="265.8" height="12" fill="#DA5B0B"/><rect x="567.0" y="66" width="138.5" height="12" fill="#3572A5"/><rect x="707.5" y="66" width="38.0" height="12" fill="#f1e05a"/><rect x="747.5" y="66" width="23.1" height="12" fill="#3178c6"/><rect x="772.5" y="66" width="37.5" height="12" fill="#353C55"/></g><circle cx="33.0" cy="107" r="5" fill="#e34c26"/><path fill="#ECEEF6" transform="translate(48.0 112) scale(0.0145 -0.0145)" d="M73 0V686H181V397H476V686H584V0H476V303H181V0ZM879 0V593H676V686H1192V593H987V0ZM1284 0V686H1449L1569 271Q1574 255 1579 233Q1584 212 1589 191Q1594 170 1597 155H1604Q1606 168 1611 188Q1615 208 1620 230Q1625 252 1630 271L1750 686H1913V0H1807V394Q1807 424 1807 458Q1808 492 1809 519Q1810 547 1810 558H1803Q1801 547 1795 525Q1789 502 1782 476Q1776 451 1770 432L1643 0H1550L1423 431Q1419 447 1413 469Q1407 492 1402 515Q1396 539 1391 558H1384Q1385 537 1386 507Q1386 477 1387 447Q1388 417 1388 394V0ZM2060 0V686H2168V94H2468V0Z"/><path fill="#8D95AB" transform="translate(225.3 112) scale(0.0120 -0.0120)" d="M289 -10Q223 -10 174 16Q124 43 97 90Q70 137 70 200H160Q160 139 194 104Q229 70 290 70Q352 70 386 106Q420 142 420 200V252Q420 314 386 348Q352 382 290 382H215V472L396 648H100V730H487V640L292 451V462Q392 462 451 405Q510 348 510 252V200Q510 137 482 90Q455 43 405 16Q355 -10 289 -10ZM1010 0V160H680V301L969 730H1067L770 282V242H1010V420H1100V0ZM1500 -10Q1462 -10 1440 12Q1417 34 1417 71Q1417 110 1440 133Q1462 156 1500 156Q1538 156 1560 133Q1583 110 1583 71Q1583 34 1560 12Q1538 -10 1500 -10ZM2101 -10Q2031 -10 1978 20Q1926 49 1897 102Q1868 155 1868 225Q1868 280 1884 333Q1899 386 1930 435L2113 730H2213L2006 398L2010 395Q2029 423 2062 438Q2095 453 2136 453Q2196 453 2240 425Q2284 397 2308 346Q2332 295 2332 225Q2332 155 2303 102Q2274 49 2222 20Q2171 -10 2101 -10ZM2100 70Q2164 70 2203 112Q2242 155 2242 225Q2242 295 2203 338Q2164 380 2100 380Q2036 380 1997 338Q1958 295 1958 225Q1958 155 1997 112Q2036 70 2100 70ZM2414 0 2912 730H2986L2488 0ZM2845 -5Q2782 -5 2744 31Q2706 67 2706 130V195Q2706 258 2744 294Q2782 330 2845 330Q2908 330 2946 294Q2984 258 2984 195V130Q2984 67 2946 31Q2908 -5 2845 -5ZM2845 64Q2910 64 2910 130V195Q2910 262 2845 262Q2780 262 2780 195V130Q2780 64 2845 64ZM2555 400Q2492 400 2454 436Q2416 472 2416 535V600Q2416 663 2454 699Q2492 735 2555 735Q2618 735 2656 699Q2694 663 2694 600V535Q2694 472 2656 436Q2618 400 2555 400ZM2555 468Q2620 468 2620 535V600Q2620 667 2555 667Q2523 667 2506 650Q2490 634 2490 600V535Q2490 501 2506 484Q2523 468 2555 468Z"/><circle cx="294.3333333333333" cy="107" r="5" fill="#DA5B0B"/><path fill="#ECEEF6" transform="translate(309.3 112) scale(0.0145 -0.0145)" d="M231 -12Q166 -12 120 9Q74 30 50 72Q25 114 25 177V213H132V178Q132 130 157 105Q181 80 232 80Q283 80 308 114Q333 147 333 213V686H441V213Q441 136 416 86Q391 36 344 12Q297 -12 231 -12ZM715 -12Q648 -12 607 25Q567 63 567 152V526H666V171Q666 145 672 127Q677 110 688 98Q699 87 715 82Q732 77 752 77Q783 77 809 94Q834 110 849 142Q864 174 864 218V526H963V0H882L874 72H868Q851 44 828 25Q805 7 777 -3Q749 -12 715 -12ZM1085 -176V526H1166L1174 456H1180Q1202 495 1238 517Q1275 538 1324 538Q1382 538 1423 510Q1464 481 1485 420Q1507 359 1507 261Q1507 166 1485 106Q1463 45 1423 17Q1383 -12 1328 -12Q1297 -12 1271 -4Q1245 4 1224 21Q1204 38 1190 62H1184V-176ZM1295 76Q1334 76 1358 94Q1382 112 1393 151Q1405 190 1405 250V276Q1405 338 1393 377Q1382 416 1358 434Q1334 452 1295 452Q1256 452 1231 431Q1207 411 1195 372Q1184 332 1184 275V252Q1184 206 1192 172Q1199 139 1213 118Q1228 96 1248 86Q1269 76 1295 76ZM1654 -185Q1628 -185 1609 -181Q1589 -177 1583 -176V-103H1626Q1649 -103 1668 -92Q1687 -82 1703 -59Q1718 -36 1728 0L1553 526H1657L1742 251Q1748 235 1754 212Q1760 188 1767 163Q1774 138 1778 118H1784Q1787 133 1792 151Q1796 170 1801 190Q1806 209 1811 227Q1816 245 1819 259L1892 526H1992L1836 16Q1823 -27 1808 -64Q1792 -101 1771 -128Q1750 -155 1722 -170Q1693 -185 1654 -185ZM2177 -12Q2135 -12 2112 5Q2089 21 2080 48Q2071 76 2071 107V444H2014V526H2073L2091 674H2170V526H2253V444H2170V117Q2170 94 2178 82Q2187 71 2208 71H2253V3Q2243 -1 2230 -4Q2216 -7 2203 -10Q2189 -12 2177 -12ZM2533 -12Q2458 -12 2410 17Q2361 46 2337 107Q2313 168 2313 263Q2313 360 2337 421Q2361 481 2411 510Q2461 538 2536 538Q2603 538 2649 512Q2695 485 2718 428Q2741 372 2741 281V239H2415Q2416 181 2428 143Q2440 105 2466 87Q2492 68 2534 68Q2558 68 2578 76Q2598 83 2612 97Q2626 111 2634 132Q2641 154 2642 181H2739Q2739 135 2724 98Q2710 62 2683 38Q2656 13 2618 1Q2580 -12 2533 -12ZM2416 309H2638Q2638 350 2631 377Q2624 405 2611 423Q2598 441 2578 449Q2559 457 2534 457Q2495 457 2470 441Q2444 424 2431 391Q2419 358 2416 309ZM2839 0V526H2920L2928 446H2934Q2944 472 2957 492Q2971 513 2992 526Q3013 538 3042 538Q3055 538 3065 536Q3076 534 3083 531V435H3049Q3022 435 3001 425Q2980 416 2966 397Q2952 379 2945 351Q2938 324 2938 288V0ZM3343 0V686H3446L3714 266Q3718 260 3725 249Q3731 238 3737 227Q3743 216 3746 207H3751Q3751 223 3751 239Q3751 254 3751 267V686H3854V0H3754L3484 425Q3477 436 3467 455Q3457 474 3451 487H3446Q3446 472 3446 456Q3446 440 3446 425V0ZM4189 -12Q4115 -12 4065 17Q4015 46 3990 107Q3964 167 3964 263Q3964 359 3990 420Q4015 480 4065 509Q4115 538 4189 538Q4263 538 4313 509Q4363 480 4388 420Q4413 359 4413 263Q4413 167 4388 107Q4363 46 4313 17Q4263 -12 4189 -12ZM4189 70Q4231 70 4258 89Q4285 108 4298 147Q4311 187 4311 249V277Q4311 340 4298 379Q4285 418 4258 437Q4231 456 4189 456Q4147 456 4119 437Q4092 418 4080 379Q4067 340 4067 277V249Q4067 187 4080 147Q4092 108 4119 89Q4147 70 4189 70ZM4628 -12Q4587 -12 4564 5Q4541 21 4532 48Q4523 76 4523 107V444H4466V526H4525L4543 674H4622V526H4705V444H4622V117Q4622 94 4630 82Q4638 71 4659 71H4705V3Q4695 -1 4681 -4Q4668 -7 4654 -10Q4640 -12 4628 -12ZM4984 -12Q4910 -12 4861 17Q4812 46 4788 107Q4764 168 4764 263Q4764 360 4788 421Q4813 481 4862 510Q4912 538 4987 538Q5055 538 5101 512Q5146 485 5169 428Q5192 372 5192 281V239H4866Q4867 181 4879 143Q4891 105 4917 87Q4943 68 4985 68Q5010 68 5030 76Q5049 83 5063 97Q5078 111 5085 132Q5093 154 5093 181H5191Q5190 135 5176 98Q5162 62 5135 38Q5108 13 5070 1Q5032 -12 4984 -12ZM4867 309H5089Q5089 350 5082 377Q5075 405 5062 423Q5049 441 5030 449Q5011 457 4985 457Q4946 457 4921 441Q4896 424 4883 391Q4870 358 4867 309ZM5529 -12Q5480 -12 5444 10Q5407 32 5385 71H5379L5371 0H5290V723H5389V464H5395Q5409 489 5430 506Q5450 522 5476 530Q5502 538 5533 538Q5589 538 5629 510Q5669 481 5690 421Q5712 361 5712 266Q5712 167 5691 106Q5669 45 5628 17Q5588 -12 5529 -12ZM5500 75Q5539 75 5563 93Q5587 111 5598 149Q5610 188 5610 249V275Q5610 336 5599 375Q5587 414 5563 432Q5539 450 5500 450Q5474 450 5453 440Q5433 430 5419 409Q5404 388 5397 354Q5389 320 5389 274V250Q5389 193 5401 154Q5412 115 5437 95Q5461 75 5500 75ZM6011 -12Q5937 -12 5887 17Q5837 46 5812 107Q5786 167 5786 263Q5786 359 5812 420Q5837 480 5887 509Q5937 538 6011 538Q6085 538 6135 509Q6185 480 6210 420Q6235 359 6235 263Q6235 167 6210 107Q6185 46 6135 17Q6085 -12 6011 -12ZM6011 70Q6053 70 6080 89Q6107 108 6120 147Q6133 187 6133 249V277Q6133 340 6120 379Q6107 418 6080 437Q6053 456 6011 456Q5969 456 5942 437Q5915 418 5902 379Q5889 340 5889 277V249Q5889 187 5902 147Q5915 108 5942 89Q5969 70 6011 70ZM6534 -12Q6460 -12 6410 17Q6360 46 6335 107Q6310 167 6310 263Q6310 359 6335 420Q6360 480 6410 509Q6460 538 6534 538Q6608 538 6658 509Q6708 480 6733 420Q6758 359 6758 263Q6758 167 6733 107Q6708 46 6658 17Q6608 -12 6534 -12ZM6534 70Q6576 70 6603 89Q6630 108 6643 147Q6656 187 6656 249V277Q6656 340 6643 379Q6630 418 6603 437Q6576 456 6534 456Q6492 456 6465 437Q6438 418 6425 379Q6412 340 6412 277V249Q6412 187 6425 147Q6438 108 6465 89Q6492 70 6534 70ZM6856 0V723H6955V290L7138 526H7251L7090 322L7260 0H7148L7026 241L6955 162V0Z"/><path fill="#8D95AB" transform="translate(486.7 112) scale(0.0120 -0.0120)" d="M289 -10Q223 -10 174 16Q124 43 97 90Q70 137 70 200H160Q160 139 194 104Q229 70 290 70Q352 70 386 106Q420 142 420 200V252Q420 314 386 348Q352 382 290 382H215V472L396 648H100V730H487V640L292 451V462Q392 462 451 405Q510 348 510 252V200Q510 137 482 90Q455 43 405 16Q355 -10 289 -10ZM1010 0V160H680V301L969 730H1067L770 282V242H1010V420H1100V0ZM1500 -10Q1462 -10 1440 12Q1417 34 1417 71Q1417 110 1440 133Q1462 156 1500 156Q1538 156 1560 133Q1583 110 1583 71Q1583 34 1560 12Q1538 -10 1500 -10ZM1892 0V92L2115 329Q2172 390 2198 438Q2224 485 2224 529Q2224 590 2190 625Q2157 660 2099 660Q2035 660 1998 624Q1962 588 1962 525H1872Q1874 591 1902 640Q1931 688 1982 714Q2032 740 2099 740Q2165 740 2214 714Q2262 689 2288 642Q2314 595 2314 530Q2314 468 2281 407Q2248 346 2173 268L1993 82H2326V0ZM2414 0 2912 730H2986L2488 0ZM2845 -5Q2782 -5 2744 31Q2706 67 2706 130V195Q2706 258 2744 294Q2782 330 2845 330Q2908 330 2946 294Q2984 258 2984 195V130Q2984 67 2946 31Q2908 -5 2845 -5ZM2845 64Q2910 64 2910 130V195Q2910 262 2845 262Q2780 262 2780 195V130Q2780 64 2845 64ZM2555 400Q2492 400 2454 436Q2416 472 2416 535V600Q2416 663 2454 699Q2492 735 2555 735Q2618 735 2656 699Q2694 663 2694 600V535Q2694 472 2656 436Q2618 400 2555 400ZM2555 468Q2620 468 2620 535V600Q2620 667 2555 667Q2523 667 2506 650Q2490 634 2490 600V535Q2490 501 2506 484Q2523 468 2555 468Z"/><circle cx="555.6666666666666" cy="107" r="5" fill="#3572A5"/><path fill="#ECEEF6" transform="translate(570.7 112) scale(0.0145 -0.0145)" d="M73 0V686H368Q441 686 486 659Q532 633 554 585Q575 537 575 474Q575 409 551 360Q527 310 481 283Q435 255 367 255H181V0ZM181 348H358Q410 348 438 381Q466 414 466 472Q466 512 455 539Q443 566 418 580Q394 593 356 593H181ZM708 -185Q682 -185 663 -181Q644 -177 637 -176V-103H680Q703 -103 722 -92Q742 -82 757 -59Q772 -36 782 0L607 526H711L796 251Q802 235 808 212Q815 188 821 163Q828 138 832 118H838Q841 133 846 151Q850 170 855 190Q860 209 865 227Q870 245 873 259L946 526H1046L891 16Q877 -27 862 -64Q846 -101 825 -128Q805 -155 776 -170Q747 -185 708 -185ZM1231 -12Q1190 -12 1167 5Q1144 21 1135 48Q1125 76 1125 107V444H1069V526H1127L1145 674H1224V526H1308V444H1224V117Q1224 94 1233 82Q1241 71 1262 71H1308V3Q1297 -1 1284 -4Q1271 -7 1257 -10Q1243 -12 1231 -12ZM1391 0V723H1489V465H1496Q1512 489 1533 505Q1555 521 1581 530Q1608 538 1640 538Q1684 538 1718 522Q1751 506 1769 470Q1787 434 1787 374V0H1688V355Q1688 381 1682 399Q1677 417 1666 428Q1655 439 1638 444Q1622 450 1602 450Q1571 450 1545 433Q1520 416 1504 385Q1489 354 1489 308V0ZM2105 -12Q2031 -12 1981 17Q1931 46 1906 107Q1881 167 1881 263Q1881 359 1906 420Q1931 480 1981 509Q2031 538 2105 538Q2179 538 2229 509Q2279 480 2304 420Q2330 359 2330 263Q2330 167 2304 107Q2279 46 2229 17Q2179 -12 2105 -12ZM2105 70Q2147 70 2174 89Q2201 108 2214 147Q2227 187 2227 249V277Q2227 340 2214 379Q2201 418 2174 437Q2147 456 2105 456Q2063 456 2036 437Q2009 418 1996 379Q1983 340 1983 277V249Q1983 187 1996 147Q2009 108 2036 89Q2063 70 2105 70ZM2428 0V526H2509L2518 454H2524Q2541 482 2564 501Q2586 520 2615 529Q2643 538 2676 538Q2721 538 2754 522Q2788 506 2806 470Q2824 434 2824 374V0H2725V355Q2725 381 2719 399Q2714 417 2703 428Q2692 439 2675 444Q2659 450 2639 450Q2608 450 2582 433Q2557 416 2541 385Q2526 353 2526 308V0Z"/><path fill="#8D95AB" transform="translate(748.0 112) scale(0.0120 -0.0120)" d="M90 0V82H288V655L90 507V607L255 730H378V82H540V0ZM785 0 1046 648H770V540H680V730H1135V642L882 0ZM1500 -10Q1462 -10 1440 12Q1417 34 1417 71Q1417 110 1440 133Q1462 156 1500 156Q1538 156 1560 133Q1583 110 1583 71Q1583 34 1560 12Q1538 -10 1500 -10ZM1987 0 2194 332 2190 335Q2171 307 2138 292Q2105 277 2064 277Q2005 277 1960 305Q1916 333 1892 384Q1868 436 1868 505Q1868 576 1897 628Q1926 681 1978 710Q2030 740 2099 740Q2169 740 2222 710Q2274 681 2303 628Q2332 576 2332 505Q2332 450 2316 397Q2301 344 2270 295L2087 0ZM2100 350Q2164 350 2203 392Q2242 435 2242 505Q2242 575 2203 618Q2164 660 2100 660Q2036 660 1997 618Q1958 575 1958 505Q1958 435 1997 392Q2036 350 2100 350ZM2414 0 2912 730H2986L2488 0ZM2845 -5Q2782 -5 2744 31Q2706 67 2706 130V195Q2706 258 2744 294Q2782 330 2845 330Q2908 330 2946 294Q2984 258 2984 195V130Q2984 67 2946 31Q2908 -5 2845 -5ZM2845 64Q2910 64 2910 130V195Q2910 262 2845 262Q2780 262 2780 195V130Q2780 64 2845 64ZM2555 400Q2492 400 2454 436Q2416 472 2416 535V600Q2416 663 2454 699Q2492 735 2555 735Q2618 735 2656 699Q2694 663 2694 600V535Q2694 472 2656 436Q2618 400 2555 400ZM2555 468Q2620 468 2620 535V600Q2620 667 2555 667Q2523 667 2506 650Q2490 634 2490 600V535Q2490 501 2506 484Q2523 468 2555 468Z"/><circle cx="33.0" cy="137" r="5" fill="#f1e05a"/><path fill="#ECEEF6" transform="translate(48.0 142) scale(0.0145 -0.0145)" d="M231 -12Q166 -12 120 9Q74 30 50 72Q25 114 25 177V213H132V178Q132 130 157 105Q181 80 232 80Q283 80 308 114Q333 147 333 213V686H441V213Q441 136 416 86Q391 36 344 12Q297 -12 231 -12ZM693 -12Q667 -12 641 -5Q614 2 592 18Q570 35 556 63Q543 91 543 133Q543 182 564 217Q584 251 623 272Q662 294 718 303Q775 313 846 313V373Q846 399 838 418Q830 437 811 447Q791 458 756 458Q719 458 698 447Q678 436 670 419Q662 402 662 381V369H567Q566 374 566 379Q566 384 566 390Q566 440 591 473Q615 506 659 522Q703 538 759 538Q820 538 861 521Q902 503 923 467Q945 432 945 377V105Q945 87 953 79Q962 71 975 71H1008V4Q995 -1 977 -6Q960 -11 937 -11Q912 -11 895 -1Q878 8 868 25Q858 42 854 64H848Q833 42 811 24Q788 7 759 -2Q730 -12 693 -12ZM723 70Q749 70 771 80Q793 89 810 106Q826 122 836 147Q846 171 846 201V244Q781 244 736 234Q691 223 668 201Q645 179 645 144Q645 120 654 104Q663 87 681 79Q698 70 723 70ZM1185 0 1020 526H1124L1202 259Q1207 243 1213 217Q1220 192 1227 164Q1234 136 1239 114H1244Q1249 130 1255 157Q1261 184 1268 212Q1275 240 1281 259L1359 526H1459L1293 0ZM1650 -12Q1624 -12 1597 -5Q1570 2 1548 18Q1526 35 1513 63Q1499 91 1499 133Q1499 182 1520 217Q1540 251 1579 272Q1618 294 1675 303Q1731 313 1802 313V373Q1802 399 1794 418Q1786 437 1767 447Q1747 458 1712 458Q1675 458 1654 447Q1634 436 1626 419Q1618 402 1618 381V369H1523Q1522 374 1522 379Q1522 384 1522 390Q1522 440 1547 473Q1572 506 1615 522Q1659 538 1716 538Q1776 538 1817 521Q1858 503 1879 467Q1901 432 1901 377V105Q1901 87 1910 79Q1918 71 1931 71H1964V4Q1951 -1 1934 -6Q1916 -11 1894 -11Q1869 -11 1851 -1Q1834 8 1824 25Q1814 42 1810 64H1805Q1789 42 1767 24Q1745 7 1716 -2Q1686 -12 1650 -12ZM1679 70Q1705 70 1727 80Q1750 89 1766 106Q1783 122 1792 147Q1802 171 1802 201V244Q1737 244 1692 234Q1648 223 1625 201Q1602 179 1602 144Q1602 120 1611 104Q1620 87 1637 79Q1655 70 1679 70ZM2266 -12Q2214 -12 2168 -1Q2121 10 2086 34Q2051 59 2030 99Q2010 138 2010 196Q2010 201 2010 206Q2011 212 2011 216H2118Q2118 212 2118 206Q2118 201 2118 196Q2118 157 2135 131Q2153 106 2186 93Q2219 80 2265 80Q2290 80 2312 84Q2334 88 2353 95Q2371 103 2384 115Q2398 127 2405 144Q2412 161 2412 183Q2412 214 2396 235Q2379 256 2352 270Q2324 284 2290 295Q2255 306 2218 317Q2182 329 2147 343Q2113 358 2085 380Q2057 401 2041 433Q2025 465 2025 511Q2025 558 2042 593Q2060 628 2092 652Q2125 675 2170 687Q2214 698 2269 698Q2319 698 2362 687Q2404 676 2437 653Q2469 630 2487 593Q2505 556 2505 505V491H2399V505Q2399 537 2383 559Q2368 582 2339 594Q2310 606 2270 606Q2227 606 2196 596Q2166 586 2150 567Q2134 548 2134 519Q2134 490 2150 471Q2166 451 2194 438Q2222 424 2256 414Q2291 403 2327 392Q2364 380 2399 365Q2433 351 2461 329Q2489 307 2505 275Q2521 242 2521 197Q2521 122 2488 76Q2456 30 2398 9Q2341 -12 2266 -12ZM2811 -12Q2739 -12 2691 18Q2644 47 2621 108Q2598 169 2598 263Q2598 359 2622 419Q2646 480 2694 509Q2741 538 2813 538Q2863 538 2899 525Q2935 512 2960 485Q2984 459 2996 420Q3007 381 3007 329H2908Q2908 373 2898 401Q2889 429 2867 443Q2846 456 2811 456Q2775 456 2751 438Q2726 420 2713 381Q2700 342 2700 277V248Q2700 190 2712 150Q2723 110 2748 90Q2774 70 2813 70Q2848 70 2869 84Q2891 98 2901 126Q2911 155 2911 197H3007Q3007 151 2996 113Q2984 74 2960 47Q2936 19 2899 3Q2862 -12 2811 -12ZM3104 0V526H3186L3194 446H3200Q3209 472 3223 492Q3236 513 3257 526Q3278 538 3307 538Q3320 538 3331 536Q3341 534 3348 531V435H3314Q3287 435 3266 425Q3246 416 3231 397Q3217 379 3210 351Q3203 324 3203 288V0ZM3416 619V723H3514V619ZM3416 0V526H3514V0ZM3637 -176V526H3717L3725 456H3732Q3753 495 3790 517Q3826 538 3875 538Q3934 538 3974 510Q4015 481 4037 420Q4058 359 4058 261Q4058 166 4037 106Q4015 45 3975 17Q3935 -12 3880 -12Q3849 -12 3822 -4Q3796 4 3776 21Q3755 38 3741 62H3735V-176ZM3846 76Q3885 76 3909 94Q3933 112 3945 151Q3956 190 3956 250V276Q3956 338 3945 377Q3933 416 3909 434Q3885 452 3847 452Q3808 452 3783 431Q3758 411 3747 372Q3735 332 3735 275V252Q3735 206 3743 172Q3751 139 3765 118Q3779 96 3800 86Q3820 76 3846 76ZM4273 -12Q4232 -12 4209 5Q4186 21 4177 48Q4168 76 4168 107V444H4111V526H4170L4188 674H4267V526H4350V444H4267V117Q4267 94 4275 82Q4284 71 4304 71H4350V3Q4340 -1 4326 -4Q4313 -7 4299 -10Q4286 -12 4273 -12Z"/><path fill="#8D95AB" transform="translate(232.5 142) scale(0.0120 -0.0120)" d="M298 -10Q209 -10 152 36Q95 82 85 160H175Q180 117 212 94Q244 70 299 70Q362 70 394 104Q425 138 425 200V271Q425 333 394 367Q362 401 300 401Q261 401 232 380Q203 360 190 326H100L105 730H489V648H192L189 405H217L189 379Q189 426 226 453Q264 480 327 480Q416 481 466 426Q515 370 515 271V200Q515 103 458 46Q401 -10 298 -10ZM900 -10Q862 -10 840 12Q817 34 817 71Q817 110 840 133Q862 156 900 156Q938 156 960 133Q983 110 983 71Q983 34 960 12Q938 -10 900 -10ZM1290 0V82H1488V655L1290 507V607L1455 730H1578V82H1740V0ZM1814 0 2312 730H2386L1888 0ZM2245 -5Q2182 -5 2144 31Q2106 67 2106 130V195Q2106 258 2144 294Q2182 330 2245 330Q2308 330 2346 294Q2384 258 2384 195V130Q2384 67 2346 31Q2308 -5 2245 -5ZM2245 64Q2310 64 2310 130V195Q2310 262 2245 262Q2180 262 2180 195V130Q2180 64 2245 64ZM1955 400Q1892 400 1854 436Q1816 472 1816 535V600Q1816 663 1854 699Q1892 735 1955 735Q2018 735 2056 699Q2094 663 2094 600V535Q2094 472 2056 436Q2018 400 1955 400ZM1955 468Q2020 468 2020 535V600Q2020 667 1955 667Q1923 667 1906 650Q1890 634 1890 600V535Q1890 501 1906 484Q1923 468 1955 468Z"/><circle cx="294.3333333333333" cy="137" r="5" fill="#3178c6"/><path fill="#ECEEF6" transform="translate(309.3 142) scale(0.0145 -0.0145)" d="M223 0V593H19V686H535V593H330V0ZM664 -185Q638 -185 618 -181Q599 -177 592 -176V-103H635Q658 -103 678 -92Q697 -82 712 -59Q728 -36 737 0L562 526H667L752 251Q757 235 764 212Q770 188 777 163Q783 138 787 118H793Q797 133 801 151Q806 170 811 190Q815 209 820 227Q825 245 829 259L902 526H1001L846 16Q833 -27 817 -64Q802 -101 781 -128Q760 -155 732 -170Q703 -185 664 -185ZM1070 -176V526H1150L1158 456H1165Q1186 495 1223 517Q1259 538 1308 538Q1367 538 1407 510Q1448 481 1470 420Q1491 359 1491 261Q1491 166 1470 106Q1448 45 1408 17Q1368 -12 1312 -12Q1282 -12 1255 -4Q1229 4 1209 21Q1188 38 1174 62H1168V-176ZM1279 76Q1318 76 1342 94Q1366 112 1378 151Q1389 190 1389 250V276Q1389 338 1378 377Q1366 416 1342 434Q1318 452 1280 452Q1241 452 1216 431Q1191 411 1180 372Q1168 332 1168 275V252Q1168 206 1176 172Q1183 139 1198 118Q1212 96 1233 86Q1253 76 1279 76ZM1786 -12Q1711 -12 1663 17Q1614 46 1590 107Q1566 168 1566 263Q1566 360 1590 421Q1614 481 1664 510Q1714 538 1789 538Q1857 538 1902 512Q1948 485 1971 428Q1994 372 1994 281V239H1668Q1669 181 1681 143Q1693 105 1719 87Q1745 68 1787 68Q1811 68 1831 76Q1851 83 1865 97Q1879 111 1887 132Q1895 154 1895 181H1992Q1992 135 1978 98Q1963 62 1936 38Q1909 13 1871 1Q1833 -12 1786 -12ZM1669 309H1891Q1891 350 1884 377Q1877 405 1864 423Q1851 441 1831 449Q1812 457 1787 457Q1748 457 1723 441Q1697 424 1684 391Q1672 358 1669 309ZM2329 -12Q2277 -12 2230 -1Q2184 10 2149 34Q2114 59 2093 99Q2073 138 2073 196Q2073 201 2073 206Q2074 212 2074 216H2181Q2181 212 2181 206Q2180 201 2180 196Q2180 157 2198 131Q2216 106 2249 93Q2282 80 2328 80Q2353 80 2375 84Q2397 88 2416 95Q2434 103 2447 115Q2461 127 2468 144Q2475 161 2475 183Q2475 214 2459 235Q2442 256 2415 270Q2387 284 2353 295Q2318 306 2281 317Q2245 329 2210 343Q2175 358 2148 380Q2120 401 2104 433Q2088 465 2088 511Q2088 558 2105 593Q2123 628 2155 652Q2188 675 2232 687Q2277 698 2332 698Q2382 698 2425 687Q2467 676 2500 653Q2532 630 2550 593Q2568 556 2568 505V491H2462V505Q2462 537 2446 559Q2431 582 2402 594Q2373 606 2333 606Q2290 606 2259 596Q2229 586 2213 567Q2197 548 2197 519Q2197 490 2213 471Q2229 451 2257 438Q2285 424 2319 414Q2354 403 2390 392Q2427 380 2462 365Q2496 351 2524 329Q2552 307 2568 275Q2584 242 2584 197Q2584 122 2551 76Q2519 30 2461 9Q2404 -12 2329 -12ZM2874 -12Q2802 -12 2754 18Q2707 47 2684 108Q2661 169 2661 263Q2661 359 2685 419Q2709 480 2756 509Q2804 538 2876 538Q2925 538 2962 525Q2998 512 3023 485Q3047 459 3058 420Q3070 381 3070 329H2971Q2971 373 2961 401Q2952 429 2930 443Q2909 456 2874 456Q2838 456 2813 438Q2788 420 2776 381Q2763 342 2763 277V248Q2763 190 2775 150Q2786 110 2811 90Q2836 70 2876 70Q2911 70 2932 84Q2953 98 2964 126Q2974 155 2974 197H3070Q3070 151 3059 113Q3047 74 3023 47Q2999 19 2962 3Q2925 -12 2874 -12ZM3167 0V526H3249L3257 446H3263Q3272 472 3286 492Q3299 513 3320 526Q3341 538 3370 538Q3383 538 3394 536Q3404 534 3411 531V435H3377Q3350 435 3329 425Q3308 416 3294 397Q3280 379 3273 351Q3266 324 3266 288V0ZM3479 619V723H3577V619ZM3479 0V526H3577V0ZM3700 -176V526H3780L3788 456H3795Q3816 495 3853 517Q3889 538 3938 538Q3997 538 4037 510Q4078 481 4100 420Q4121 359 4121 261Q4121 166 4100 106Q4078 45 4038 17Q3998 -12 3943 -12Q3912 -12 3885 -4Q3859 4 3839 21Q3818 38 3804 62H3798V-176ZM3909 76Q3948 76 3972 94Q3996 112 4008 151Q4019 190 4019 250V276Q4019 338 4008 377Q3996 416 3972 434Q3948 452 3910 452Q3871 452 3846 431Q3821 411 3810 372Q3798 332 3798 275V252Q3798 206 3806 172Q3813 139 3828 118Q3842 96 3863 86Q3883 76 3909 76ZM4336 -12Q4295 -12 4272 5Q4249 21 4240 48Q4231 76 4231 107V444H4174V526H4233L4251 674H4330V526H4413V444H4330V117Q4330 94 4338 82Q4346 71 4367 71H4413V3Q4403 -1 4389 -4Q4376 -7 4362 -10Q4348 -12 4336 -12Z"/><path fill="#8D95AB" transform="translate(493.9 142) scale(0.0120 -0.0120)" d="M289 -10Q223 -10 174 16Q124 43 97 90Q70 137 70 200H160Q160 139 194 104Q229 70 290 70Q352 70 386 106Q420 142 420 200V252Q420 314 386 348Q352 382 290 382H215V472L396 648H100V730H487V640L292 451V462Q392 462 451 405Q510 348 510 252V200Q510 137 482 90Q455 43 405 16Q355 -10 289 -10ZM900 -10Q862 -10 840 12Q817 34 817 71Q817 110 840 133Q862 156 900 156Q938 156 960 133Q983 110 983 71Q983 34 960 12Q938 -10 900 -10ZM1292 0V92L1515 329Q1572 390 1598 438Q1624 485 1624 529Q1624 590 1590 625Q1557 660 1499 660Q1435 660 1398 624Q1362 588 1362 525H1272Q1274 591 1302 640Q1331 688 1382 714Q1432 740 1499 740Q1565 740 1614 714Q1662 689 1688 642Q1714 595 1714 530Q1714 468 1681 407Q1648 346 1573 268L1393 82H1726V0ZM1814 0 2312 730H2386L1888 0ZM2245 -5Q2182 -5 2144 31Q2106 67 2106 130V195Q2106 258 2144 294Q2182 330 2245 330Q2308 330 2346 294Q2384 258 2384 195V130Q2384 67 2346 31Q2308 -5 2245 -5ZM2245 64Q2310 64 2310 130V195Q2310 262 2245 262Q2180 262 2180 195V130Q2180 64 2245 64ZM1955 400Q1892 400 1854 436Q1816 472 1816 535V600Q1816 663 1854 699Q1892 735 1955 735Q2018 735 2056 699Q2094 663 2094 600V535Q2094 472 2056 436Q2018 400 1955 400ZM1955 468Q2020 468 2020 535V600Q2020 667 1955 667Q1923 667 1906 650Q1890 634 1890 600V535Q1890 501 1906 484Q1923 468 1955 468Z"/><circle cx="555.6666666666666" cy="137" r="5" fill="#353C55"/><path fill="#ECEEF6" transform="translate(570.7 142) scale(0.0145 -0.0145)" d="M351 -12Q255 -12 186 27Q117 65 81 144Q44 223 44 343Q44 464 81 542Q117 621 186 660Q255 698 351 698Q449 698 518 660Q586 621 622 542Q659 464 659 343Q659 223 622 144Q586 65 518 27Q449 -12 351 -12ZM351 80Q399 80 435 95Q472 110 497 141Q522 171 535 217Q548 263 548 325V361Q548 423 535 469Q522 515 497 546Q472 576 435 591Q399 606 351 606Q304 606 268 591Q231 576 206 546Q181 515 168 469Q155 423 155 361V325Q155 263 168 217Q181 171 206 141Q231 110 268 95Q304 80 351 80ZM881 -12Q839 -12 816 5Q793 21 784 48Q775 76 775 107V444H718V526H777L795 674H874V526H957V444H874V117Q874 94 882 82Q891 71 911 71H957V3Q947 -1 934 -4Q920 -7 907 -10Q893 -12 881 -12ZM1040 0V723H1139V465H1146Q1162 489 1183 505Q1204 521 1231 530Q1258 538 1289 538Q1334 538 1367 522Q1400 506 1419 470Q1437 434 1437 374V0H1338V355Q1338 381 1332 399Q1326 417 1315 428Q1304 439 1288 444Q1272 450 1251 450Q1220 450 1195 433Q1169 416 1154 385Q1139 354 1139 308V0ZM1750 -12Q1676 -12 1627 17Q1578 46 1554 107Q1530 168 1530 263Q1530 360 1555 421Q1579 481 1629 510Q1678 538 1754 538Q1821 538 1867 512Q1913 485 1936 428Q1959 372 1959 281V239H1632Q1633 181 1646 143Q1658 105 1684 87Q1709 68 1752 68Q1776 68 1796 76Q1816 83 1830 97Q1844 111 1852 132Q1859 154 1860 181H1957Q1957 135 1942 98Q1928 62 1901 38Q1874 13 1836 1Q1798 -12 1750 -12ZM1633 309H1856Q1856 350 1849 377Q1842 405 1829 423Q1816 441 1796 449Q1777 457 1752 457Q1713 457 1687 441Q1662 424 1649 391Q1636 358 1633 309ZM2057 0V526H2138L2146 446H2152Q2161 472 2175 492Q2189 513 2210 526Q2231 538 2260 538Q2273 538 2283 536Q2294 534 2300 531V435H2267Q2240 435 2219 425Q2198 416 2184 397Q2170 379 2163 351Q2156 324 2156 288V0Z"/><path fill="#8D95AB" transform="translate(755.2 142) scale(0.0120 -0.0120)" d="M298 -10Q209 -10 152 36Q95 82 85 160H175Q180 117 212 94Q244 70 299 70Q362 70 394 104Q425 138 425 200V271Q425 333 394 367Q362 401 300 401Q261 401 232 380Q203 360 190 326H100L105 730H489V648H192L189 405H217L189 379Q189 426 226 453Q264 480 327 480Q416 481 466 426Q515 370 515 271V200Q515 103 458 46Q401 -10 298 -10ZM900 -10Q862 -10 840 12Q817 34 817 71Q817 110 840 133Q862 156 900 156Q938 156 960 133Q983 110 983 71Q983 34 960 12Q938 -10 900 -10ZM1500 -10Q1433 -10 1384 16Q1334 43 1307 92Q1280 140 1280 205V525Q1280 591 1307 639Q1334 687 1384 714Q1433 740 1500 740Q1568 740 1617 714Q1666 687 1693 639Q1720 591 1720 525V205Q1720 140 1693 92Q1666 43 1616 16Q1567 -10 1500 -10ZM1500 67Q1560 67 1596 106Q1633 144 1633 205V525Q1633 586 1596 624Q1560 663 1500 663Q1440 663 1404 624Q1367 586 1367 525V205Q1367 144 1404 106Q1440 67 1500 67ZM1500 306Q1473 306 1456 323Q1440 340 1440 368Q1440 395 1456 412Q1473 428 1500 428Q1527 428 1544 412Q1560 395 1560 368Q1560 340 1544 323Q1527 306 1500 306ZM1814 0 2312 730H2386L1888 0ZM2245 -5Q2182 -5 2144 31Q2106 67 2106 130V195Q2106 258 2144 294Q2182 330 2245 330Q2308 330 2346 294Q2384 258 2384 195V130Q2384 67 2346 31Q2308 -5 2245 -5ZM2245 64Q2310 64 2310 130V195Q2310 262 2245 262Q2180 262 2180 195V130Q2180 64 2245 64ZM1955 400Q1892 400 1854 436Q1816 472 1816 535V600Q1816 663 1854 699Q1892 735 1955 735Q2018 735 2056 699Q2094 663 2094 600V535Q2094 472 2056 436Q2018 400 1955 400ZM1955 468Q2020 468 2020 535V600Q2020 667 1955 667Q1923 667 1906 650Q1890 634 1890 600V535Q1890 501 1906 484Q1923 468 1955 468Z"/></svg>
